<svg width="32" height="32" viewBox="0 0 32 32" xmlns="http://www.w3.org/2000/svg">
  <defs>
    <!-- Primary gradient -->
    <linearGradient id="primaryGrad" x1="0%" y1="0%" x2="100%" y2="0%">
      <stop offset="0%" style="stop-color:#3B82F6;stop-opacity:1" />
      <stop offset="100%" style="stop-color:#9333EA;stop-opacity:1" />
    </linearGradient>
    
    <!-- Accent gradient -->
    <linearGradient id="accentGrad" x1="0%" y1="0%" x2="100%" y2="100%">
      <stop offset="0%" style="stop-color:#06B6D4;stop-opacity:1" />
      <stop offset="100%" style="stop-color:#3B82F6;stop-opacity:1" />
    </linearGradient>
    
    <!-- Glow effect -->
    <filter id="iconGlow">
      <feGaussianBlur stdDeviation="1" result="coloredBlur"/>
      <feMerge> 
        <feMergeNode in="coloredBlur"/>
        <feMergeNode in="SourceGraphic"/>
      </feMerge>
    </filter>
  </defs>
  
  <!-- Background circle -->
  <circle cx="16" cy="16" r="14" fill="url(#primaryGrad)" filter="url(#iconGlow)" opacity="0.15"/>
  
  <!-- Main icon container -->
  <g transform="translate(16, 16)">
    <!-- Stylized S for Smart Budget -->
    <path d="M -6 -8 Q -6 -10 -4 -10 L 2 -10 Q 4 -10 4 -8 Q 4 -6 2 -6 L -2 -6 Q -4 -6 -4 -4 Q -4 -2 -2 -2 L 2 -2 Q 4 -2 4 0 Q 4 2 2 2 L -2 2 Q -4 2 -4 0" 
          fill="url(#primaryGrad)" 
          stroke="url(#accentGrad)" 
          stroke-width="0.8"/>
    
    <!-- Chart bars -->
    <g opacity="0.8">
      <rect x="5" y="-3" width="1.5" height="4" fill="url(#accentGrad)" rx="0.5"/>
      <rect x="7" y="-5" width="1.5" height="6" fill="url(#accentGrad)" rx="0.5"/>
      <rect x="9" y="-2" width="1.5" height="3" fill="url(#accentGrad)" rx="0.5"/>
    </g>
    
    <!-- Small sparkles -->
    <circle cx="-8" cy="-5" r="0.8" fill="url(#accentGrad)" opacity="0.7"/>
    <circle cx="8" cy="-7" r="0.6" fill="url(#primaryGrad)" opacity="0.6"/>
    <circle cx="-7" cy="6" r="0.5" fill="url(#accentGrad)" opacity="0.5"/>
  </g>
</svg>
